<?xml version="1.0" encoding="utf-8"?>
<!-- Generator: Adobe Illustrator 21.0.0, SVG Export Plug-In . SVG Version: 6.00 Build 0)  -->
<svg version="1.1" id="Layer_1" xmlns="http://www.w3.org/2000/svg" xmlns:xlink="http://www.w3.org/1999/xlink" x="0px" y="0px"
	 viewBox="0 0 226.8 226.8" style="enable-background:new 0 0 226.8 226.8;" xml:space="preserve">
<style type="text/css">
	.st0{fill:#FFFFFF;}
</style>
<g id="BTC_1_">
	<g>
		<g>
			<g>
				<path class="st0" d="M114,1.3C51.8,1.3,1.3,51.8,1.3,114S51.8,226.8,114,226.8S226.8,176.3,226.8,114S176.3,1.3,114,1.3z
					 M114,217c-56.9,0-103-46.1-103-103s46.1-103,103-103s103,46.1,103,103S170.9,217,114,217z"/>
			</g>
		</g>
		<g>
			<path class="st0" d="M164.8,39.2c-21.3-14.4-48.3-19.5-74.4-12.4l26.8,70.7L164.8,39.2z"/>
			<path class="st0" d="M179,51.3l-47.6,58.3l72.7,11.4c1-12.9-0.7-26.1-5.5-39C194.1,70.2,187.3,59.9,179,51.3z"/>
			<path class="st0" d="M29.5,146.1c16.5,43.6,63,66.9,107.1,55.5L72.9,33.5C32.3,54.2,13,102.5,29.5,146.1z"/>
			<path class="st0" d="M154.1,195c23.3-11.5,39.8-32,46.7-55.6l-72-11.3L154.1,195z"/>
		</g>
	</g>
</g>
</svg>
